<svg width="40" height="40" viewBox="0 0 40 40" fill="none" xmlns="http://www.w3.org/2000/svg">
<path d="M19.8667 12.5333L20.85 14.8333C20.9167 15.0333 21.1 15.15 21.2833 15.1666L23.7833 15.4C24.3167 15.45 24.5167 16.1 24.1333 16.45L22.25 18.1C22.1 18.2333 22.0333 18.4333 22.0833 18.6166L22.6333 21.0666C22.75 21.5833 22.2 21.9833 21.7333 21.7166L19.5833 20.4333C19.4167 20.3333 19.2 20.3333 19.0333 20.4333L16.8833 21.7166C16.4333 21.9833 15.8667 21.5833 15.9833 21.0666L16.5333 18.6166C16.5833 18.4333 16.5167 18.2333 16.3667 18.1L14.4833 16.45C14.0833 16.1 14.3 15.45 14.8333 15.4L17.3333 15.1666C17.5333 15.15 17.7 15.0333 17.7833 14.85L18.7667 12.55C18.9667 12.05 19.65 12.05 19.8667 12.5333Z" stroke="#FFA873" stroke-width="2" stroke-miterlimit="10" stroke-linecap="round" stroke-linejoin="round"/>
<path d="M30.6456 17.4077C30.6886 11.1485 25.6495 6.03943 19.3902 5.99635C13.131 5.95327 8.02198 10.9925 7.97891 17.2517C7.93583 23.5109 12.975 28.6199 19.2342 28.663C25.4935 28.7061 30.6025 23.6669 30.6456 17.4077Z" stroke="#FFA873" stroke-width="2" stroke-miterlimit="10" stroke-linecap="round" stroke-linejoin="round"/>
<path d="M17.7667 28.55L14.95 35.6333L11.3833 31.55L5.99998 32.05L9.56665 23.1166" stroke="#FFA873" stroke-width="2" stroke-miterlimit="10" stroke-linecap="round" stroke-linejoin="round"/>
<path d="M20.8333 28.55L23.6667 35.6333L27.2167 31.55L32.6167 32.05L29.0333 23.1166" stroke="#FFA873" stroke-width="2" stroke-miterlimit="10" stroke-linecap="round" stroke-linejoin="round"/>
</svg>
