<svg width="40" height="40" viewBox="0 0 40 40" fill="none" xmlns="http://www.w3.org/2000/svg">
<path d="M13.7836 6.18334L17.2336 4.78334C18.5836 4.23334 20.1336 4.88334 20.6836 6.25L21.7336 8.81667C22.2836 10.1667 21.6336 11.7167 20.2669 12.2833L16.4502 13.8333C16.8502 15.75 17.4669 18 18.4336 20.4333C19.5169 23.1833 20.7669 25.45 21.9002 27.2667L25.7169 25.7167C27.0836 25.1667 28.6336 25.8167 29.1836 27.1833L30.2336 29.75C30.7836 31.1167 30.1336 32.6667 28.7669 33.2167L25.3169 34.6167L25.2502 34.65C21.5336 36.15 17.2502 34.7 15.3169 31.2C14.0169 28.85 12.7336 26.2167 11.5502 23.2667C10.4836 20.6 9.65023 18.05 9.0169 15.6833C7.9669 11.8 10.0002 7.75 13.7169 6.23334L13.7836 6.18334Z" stroke="#FFA873" stroke-width="2" stroke-miterlimit="10" stroke-linecap="round" stroke-linejoin="round"/>
</svg>
